<svg id="Layer_1" data-name="Layer 1" xmlns="http://www.w3.org/2000/svg" viewBox="0 0 196 196"><defs><style>.cls-1{fill:#262300;}</style></defs><path class="cls-1" d="M57.83,125.91l5.9-7.1H58.11v-2.58H67.7v2.45l-5.59,6.82h6l-.38,2.58H57.83Z"/><path class="cls-1" d="M85.25,123.28h-5.4v2.22h6l-.39,2.58h-9V116.23h9v2.58H79.85v1.9h5.4Z"/><path class="cls-1" d="M103.06,123.28H97.67v2.22h6l-.39,2.58h-9V116.23h9v2.58H97.67v1.9h5.39Z"/><path class="cls-1" d="M112.15,128.08V116.23h4.15c1.24,2.67,3,6.27,3.55,7.73h.06c-.14-1.23-.17-3.32-.17-5.21v-2.52h3.17v11.85h-4c-1-2.15-3.15-6.59-3.7-8.15h0c.11,1.11.12,3.4.12,5.49v2.66Z"/><path class="cls-1" d="M135.22,125.77l-.68,2.31h-3.38l3.74-11.85h4.49l3.89,11.85h-3.62l-.72-2.31Zm3.11-2.57c-.55-1.86-1-3.51-1.28-4.67H137c-.27,1.28-.72,3-1.2,4.67Z"/><path class="cls-1" d="M59.16,92.73c-13.95.25-21.06-9.33-20.69-15a1.84,1.84,0,0,1,1.85-1.84c4,.82-.4,12,17.91,13.15,20.66-.67,26.31-25.6,54-6,9.69,9.82,31.91,6.71,32.33-5.52-.07-2.39,3.75-2.4,3.69,0,0,6-6.08,14.73-19.61,15.25-16.49.7-19.42-13.09-35.3-13.15C77.94,79.57,74.81,92.77,59.16,92.73Z"/><path class="cls-1" d="M142.92,101.7c-2.35,0-2.43-3.64-.07-3.69,11.34-.44,15.33-19.37,15.33-23.4C167.1,64.18,158.39,103.69,142.92,101.7Z"/><path class="cls-1" d="M160,62.47c4.62-.07,4.62,7.19,0,7.12S155.39,62.4,160,62.47Z"/><path class="cls-1" d="M92.91,62.47c4.62-.07,4.62,7.19,0,7.12S88.29,62.4,92.91,62.47Z"/><path class="cls-1" d="M125.36,96.76c4.62-.07,4.62,7.19,0,7.12S120.74,96.69,125.36,96.76Z"/><path class="cls-1" d="M133.76,96.76c4.62-.07,4.62,7.19,0,7.12S129.14,96.69,133.76,96.76Z"/><path class="cls-1" d="M36.81,62.47c4.62-.07,4.62,7.18,0,7.12S32.19,62.4,36.81,62.47Z"/><path class="cls-1" d="M45.21,62.47c4.62-.07,4.62,7.18,0,7.12S40.59,62.4,45.21,62.47Z"/></svg>